# xmcd
#
# Track frame offsets:
#	150
#	14603
#	29515
#	42060
#	60095
#	77955
#	92218
#	107310
#	124578
#	137775
#
# Disc length: 2062 seconds
#
# Revision: 1
# Processed by: cddbd v1.5.2PL0 Copyright (c) Steve Scherf et al.
# Submitted via: audiograbber 1.83.01
#
DISCID=77080c0a
DTITLE=McBride and The Ride - Sacred Ground
DYEAR=1992
DGENRE=Oldies
TTITLE0=Love's On The Line
TTITLE1=Sacred Ground
TTITLE2=Makin' Real Good Time
TTITLE3=Going Out Of My Mind
TTITLE4=Trick Rider
TTITLE5=All I Have To Offer You Is Me
TTITLE6=Your One And Only
TTITLE7=I'm The One
TTITLE8=Baby I'm Loving You Now
TTITLE9=Just One Night
EXTD=
EXTT0=
EXTT1=
EXTT2=
EXTT3=
EXTT4=
EXTT5=
EXTT6=
EXTT7=
EXTT8=
EXTT9=
PLAYORDER=
